<?xml version="1.0" encoding="UTF-8" standalone="no"?>
<svg
   xmlns:dc="http://purl.org/dc/elements/1.1/"
   xmlns:cc="http://creativecommons.org/ns#"
   xmlns:rdf="http://www.w3.org/1999/02/22-rdf-syntax-ns#"
   xmlns:svg="http://www.w3.org/2000/svg"
   xmlns="http://www.w3.org/2000/svg"
   id="svg5088"
   version="1.1"
   viewBox="0 0 16.778213 15.980581"
   height="15.980583mm"
   width="16.778214mm">
  <defs
     id="defs5082">
    <clipPath
       id="clipPath26"
       clipPathUnits="userSpaceOnUse">
      <path
         id="path24"
         d="m 46.87,357.72 h 57.62 v -61.3 H 46.87 Z" />
    </clipPath>
    <clipPath
       id="clipPath68"
       clipPathUnits="userSpaceOnUse">
      <path
         id="path66"
         d="m 134.76,353.97 h 53.44 v -53.8 h -53.44 z" />
    </clipPath>
    <clipPath
       id="clipPath92"
       clipPathUnits="userSpaceOnUse">
      <path
         id="path90"
         d="m 223.45,354.72 h 47.18 v -55.29 h -47.18 z" />
    </clipPath>
    <clipPath
       id="clipPath340"
       clipPathUnits="userSpaceOnUse">
      <path
         id="path338"
         d="m 297.63,333.83 h 56.08 V 295.5 h -56.08 z" />
    </clipPath>
    <clipPath
       id="clipPath220"
       clipPathUnits="userSpaceOnUse">
      <path
         id="path218"
         d="M 378.05,353.71 H 427.8 V 300.43 H 378.05 Z" />
    </clipPath>
    <clipPath
       id="clipPath1224"
       clipPathUnits="userSpaceOnUse">
      <path
         id="path1222"
         d="m 450.12,353.2 h 52.25 v -52.25 h -52.25 z" />
    </clipPath>
    <clipPath
       id="clipPath904"
       clipPathUnits="userSpaceOnUse">
      <path
         id="path902"
         d="m 520.935,347.63 h 55.64 v -41.12 h -55.64 z" />
    </clipPath>
    <clipPath
       id="clipPath1512"
       clipPathUnits="userSpaceOnUse">
      <path
         id="path1510"
         d="m 590.789,353.968 h 54.478 v -53.795 h -54.478 z" />
    </clipPath>
    <clipPath
       id="clipPath384"
       clipPathUnits="userSpaceOnUse">
      <path
         id="path382"
         d="M 46.97,277.28 H 104.4 V 231.61 H 46.97 Z" />
    </clipPath>
    <clipPath
       id="clipPath312"
       clipPathUnits="userSpaceOnUse">
      <path
         id="path310"
         d="m 127.4,282.06 h 68.16 V 240.85 H 127.4 Z" />
    </clipPath>
    <clipPath
       id="clipPath544"
       clipPathUnits="userSpaceOnUse">
      <path
         id="path542"
         d="m 208.18,291.795 h 77.715 V 231.114 H 208.18 Z" />
    </clipPath>
    <clipPath
       id="clipPath144"
       clipPathUnits="userSpaceOnUse">
      <path
         id="path142"
         d="m 309.62,285.63 h 32.112 V 237.28 H 309.62 Z" />
    </clipPath>
    <clipPath
       id="clipPath988"
       clipPathUnits="userSpaceOnUse">
      <path
         id="path986"
         d="m 381.1,282.73 h 43.66 V 240.17 H 381.1 Z" />
    </clipPath>
    <clipPath
       id="clipPath790"
       clipPathUnits="userSpaceOnUse">
      <path
         id="path788"
         d="m 453.3,278.98 h 46.82 V 242.6 H 453.3 Z" />
    </clipPath>
    <clipPath
       id="clipPath1144"
       clipPathUnits="userSpaceOnUse">
      <path
         id="path1142"
         d="m 523.77,273.9 h 51.05 v -26.22 h -51.05 z" />
    </clipPath>
    <clipPath
       id="clipPath1390"
       clipPathUnits="userSpaceOnUse">
      <path
         id="path1388"
         d="m 595.56,285.6 h 44.93 v -45.9 h -44.93 z" />
    </clipPath>
    <clipPath
       id="clipPath1052"
       clipPathUnits="userSpaceOnUse">
      <path
         id="path1050"
         d="M 54.2225,216.55 H 97.1436 V 173.66 H 54.2225 Z" />
    </clipPath>
    <clipPath
       id="clipPath762"
       clipPathUnits="userSpaceOnUse">
      <path
         id="path760"
         d="M 133.67,214.23 H 189.3 V 175.98 H 133.67 Z" />
    </clipPath>
    <clipPath
       id="clipPath276"
       clipPathUnits="userSpaceOnUse">
      <path
         id="path274"
         d="m 230.14,218.955 h 33.8 V 165.25 h -33.8 z" />
    </clipPath>
    <clipPath
       id="clipPath628"
       clipPathUnits="userSpaceOnUse">
      <path
         id="path626"
         d="m 297.63,227.63 h 56.09 v -71.05 h -56.09 z" />
    </clipPath>
    <clipPath
       id="clipPath420"
       clipPathUnits="userSpaceOnUse">
      <path
         id="path418"
         d="m 378.62,220.24 h 48.61 v -54.37 h -48.61 z" />
    </clipPath>
    <clipPath
       id="clipPath1072"
       clipPathUnits="userSpaceOnUse">
      <path
         id="path1070"
         d="m 447.51,212.1 h 58.4 v -44.61 h -58.4 z" />
    </clipPath>
    <clipPath
       id="clipPath1188"
       clipPathUnits="userSpaceOnUse">
      <path
         id="path1186"
         d="m 533.95,216.9 h 30.68 v -46.91 h -30.68 z" />
    </clipPath>
    <clipPath
       id="clipPath1478"
       clipPathUnits="userSpaceOnUse">
      <path
         id="path1476"
         d="M 593.15,205.25 H 642.9 V 175.81 H 593.15 Z" />
    </clipPath>
    <clipPath
       id="clipPath696"
       clipPathUnits="userSpaceOnUse">
      <path
         id="path694"
         d="m 41.9,158.92 h 63.56 V 108.56 H 41.9 Z" />
    </clipPath>
    <clipPath
       id="clipPath834"
       clipPathUnits="userSpaceOnUse">
      <path
         id="path832"
         d="m 128.24,150.16 h 66.48 v -41.6 h -66.48 z" />
    </clipPath>
    <clipPath
       id="clipPath870"
       clipPathUnits="userSpaceOnUse">
      <path
         id="path868"
         d="m 222.85,145.194 h 48.38 V 108.56 h -48.38 z" />
    </clipPath>
    <clipPath
       id="clipPath946"
       clipPathUnits="userSpaceOnUse">
      <path
         id="path944"
         d="M 303.15,145.89 H 348.2 V 108.56 H 303.15 Z" />
    </clipPath>
    <clipPath
       id="clipPath1016"
       clipPathUnits="userSpaceOnUse">
      <path
         id="path1014"
         d="M 389.46,153.23 H 416.4 V 108.56 H 389.46 Z" />
    </clipPath>
    <clipPath
       id="clipPath1108"
       clipPathUnits="userSpaceOnUse">
      <path
         id="path1106"
         d="m 456.76,146.16 h 39.89 v -37.63 h -39.89 z" />
    </clipPath>
  </defs>
  <metadata
     id="metadata5085">
    <rdf:RDF>
      <cc:Work
         rdf:about="">
        <dc:format>image/svg+xml</dc:format>
        <dc:type
           rdf:resource="http://purl.org/dc/dcmitype/StillImage" />
        <dc:title></dc:title>
      </cc:Work>
    </rdf:RDF>
  </metadata>
  <g
     transform="translate(-95.185301,-94.898363)"
     id="layer1">
    <g
       id="g9673"
       transform="matrix(0.35277777,0,0,-0.35277777,-64.596554,147.81314)">
      <g
         id="g1102">
        <g
           id="g1104" />
        <g
           id="g1128">
          <g
             clip-path="url(#clipPath1108)"
             id="g1126">
            <g
               transform="translate(478.3398,146.1602)"
               id="g1112">
              <path
                 d="m 0,0 c 10.11,0 18.311,-8.2 18.311,-18.32 0,-8.84 -6.271,-16.22 -14.611,-17.94 6.67,2.739 11.361,9.29 11.361,16.94 C 15.061,-9.2 6.86,-1 -3.26,-1 -4.52,-1 -5.76,-1.13 -6.95,-1.37 -4.81,-0.49 -2.46,0 0,0"
                 style="fill:#ff9e00;fill-opacity:1;fill-rule:nonzero;stroke:none"
                 id="path1110" />
            </g>
            <g
               transform="translate(476.9404,119.0596)"
               id="g1116">
              <path
                 d="m 0,0 c 2.619,0.431 4.01,2.311 4.01,4.32 0,2.26 -1.321,3.58 -3.931,4.64 -2.21,0.921 -3.149,1.58 -3.149,2.9 0,1.01 0.74,2.18 2.689,2.18 1.631,0 2.671,-0.56 3.2,-0.859 l 0.63,1.67 C 2.72,15.28 1.68,15.69 0.159,15.74 v 2.46 h -1.58 v -2.559 c -2.329,-0.38 -3.829,-1.981 -3.829,-4.09 0,-2.21 1.6,-3.37 4.189,-4.391 C 0.819,6.4 1.81,5.54 1.81,4.141 1.81,2.69 0.59,1.65 -1.221,1.65 c -1.42,0 -2.739,0.491 -3.649,1.09 l -0.61,-1.7 c 0.889,-0.63 2.41,-1.09 3.879,-1.109 V -2.64 H 0 Z M -1.86,26.101 C 8.26,26.101 16.46,17.9 16.46,7.78 16.46,0.131 11.77,-6.42 5.1,-9.159 H 5.09 c -1.191,-0.24 -2.431,-0.37 -3.691,-0.37 -10.12,0 -18.32,8.2 -18.32,18.309 0,7.651 4.691,14.21 11.36,16.95 h 0.01 c 1.191,0.241 2.431,0.371 3.691,0.371"
                 style="fill:#ffbb00;fill-opacity:1;fill-rule:nonzero;stroke:none"
                 id="path1114" />
            </g>
            <g
               transform="translate(478.3398,109.5303)"
               id="g1120">
              <path
                 d="M 0,0 C 1.26,0 2.5,0.13 3.69,0.37 1.55,-0.511 -0.8,-1 -3.26,-1 c -10.12,0 -18.32,8.2 -18.32,18.31 0,8.85 6.27,16.23 14.62,17.95 -6.67,-2.74 -11.36,-9.3 -11.36,-16.95 C -18.32,8.2 -10.12,0 0,0"
                 style="fill:#ffbb00;fill-opacity:1;fill-rule:nonzero;stroke:none"
                 id="path1118" />
            </g>
            <g
               transform="translate(480.9502,123.3799)"
               id="g1124">
              <path
                 d="m 0,0 c 0,-2.01 -1.391,-3.89 -4.01,-4.32 v -2.64 h -1.6 v 2.57 c -1.47,0.02 -2.991,0.48 -3.88,1.11 l 0.61,1.7 c 0.91,-0.6 2.23,-1.09 3.65,-1.09 1.81,0 3.03,1.04 3.03,2.49 0,1.4 -0.99,2.26 -2.87,3.02 -2.59,1.02 -4.19,2.181 -4.19,4.39 0,2.11 1.5,3.71 3.829,4.09 v 2.56 h 1.58 v -2.46 c 1.521,-0.05 2.561,-0.46 3.29,-0.89 L -1.19,8.86 c -0.53,0.3 -1.57,0.86 -3.201,0.86 -1.949,0 -2.689,-1.17 -2.689,-2.18 0,-1.32 0.939,-1.979 3.149,-2.9 C -1.32,3.58 0,2.26 0,0"
                 style="fill:#141414;fill-opacity:1;fill-rule:nonzero;stroke:none"
                 id="path1122" />
            </g>
          </g>
        </g>
      </g>
      <g
         id="g1130"
         transform="translate(471.3896,144.79)">
        <path
           d="m 0,0 c 2.141,0.88 4.49,1.37 6.95,1.37 10.111,0 18.311,-8.2 18.311,-18.32 0,-8.84 -6.271,-16.22 -14.611,-17.94"
           style="fill:none;stroke:#141414;stroke-width:2;stroke-linecap:round;stroke-linejoin:round;stroke-miterlimit:10;stroke-dasharray:none;stroke-opacity:1"
           id="path1132" />
      </g>
      <g
         id="g1134"
         transform="translate(471.3896,144.79)">
        <path
           d="m 0,0 c 1.19,0.24 2.431,0.37 3.69,0.37 10.121,0 18.321,-8.2 18.321,-18.32 0,-7.65 -4.691,-14.2 -11.361,-16.94 H 10.641 C 8.5,-35.771 6.15,-36.26 3.69,-36.26 c -10.12,0 -18.32,8.2 -18.32,18.31 0,8.85 6.271,16.23 14.62,17.95 z"
           style="fill:none;stroke:#141414;stroke-width:2;stroke-linecap:round;stroke-linejoin:round;stroke-miterlimit:10;stroke-dasharray:none;stroke-opacity:1"
           id="path1136" />
      </g>
    </g>
  </g>
</svg>
